<svg width="207" height="28" viewBox="0 0 207 28" fill="none" xmlns="http://www.w3.org/2000/svg">
<path d="M0 1.43194H3.456V26.9199H0V1.43194Z" fill="white"/>
<path d="M13.6195 1.43194H18.1555L32.1955 22.3839H32.2675V1.43194H35.7235V26.9199H31.3315L17.1475 5.96794H17.0755V26.9199H13.6195V1.43194Z" fill="white"/>
<path d="M51.1999 4.67193H42.9919V1.43194H62.8639V4.67193H54.6559V26.9199H51.1999V4.67193Z" fill="white"/>
<path d="M73.1318 1.43194V17.0559C73.1318 17.8479 73.2397 18.6759 73.4557 19.5399C73.6717 20.3799 74.0318 21.1599 74.5358 21.8799C75.0398 22.5999 75.6998 23.1879 76.5158 23.6439C77.3318 24.0999 78.3398 24.3279 79.5398 24.3279C80.7398 24.3279 81.7478 24.0999 82.5638 23.6439C83.3798 23.1879 84.0398 22.5999 84.5438 21.8799C85.0478 21.1599 85.4078 20.3799 85.6238 19.5399C85.8398 18.6759 85.9478 17.8479 85.9478 17.0559V1.43194H89.4038V17.5959C89.4038 19.0839 89.1518 20.4399 88.6478 21.6639C88.1438 22.8639 87.4478 23.9079 86.5598 24.7959C85.6718 25.6839 84.6278 26.3679 83.4277 26.8479C82.2278 27.3279 80.9318 27.5679 79.5398 27.5679C78.1478 27.5679 76.8518 27.3279 75.6518 26.8479C74.4518 26.3679 73.4078 25.6839 72.5198 24.7959C71.6318 23.9079 70.9358 22.8639 70.4318 21.6639C69.9278 20.4399 69.6758 19.0839 69.6758 17.5959V1.43194H73.1318Z" fill="white"/>
<path d="M99.0914 1.43194H102.547V26.9199H99.0914V1.43194Z" fill="white"/>
<path d="M118.039 4.67193H109.831V1.43194H129.703V4.67193H121.495V26.9199H118.039V4.67193Z" fill="white"/>
<path d="M136.983 1.43194H140.439V26.9199H136.983V1.43194Z" fill="white"/>
<path d="M162.302 27.5679C160.358 27.5679 158.57 27.2319 156.938 26.5599C155.306 25.8639 153.902 24.9159 152.726 23.7159C151.574 22.5159 150.662 21.0999 149.99 19.4679C149.342 17.8359 149.018 16.0719 149.018 14.1759C149.018 12.2799 149.342 10.5159 149.99 8.88393C150.662 7.25194 151.574 5.83594 152.726 4.63594C153.902 3.43594 155.306 2.49993 156.938 1.82793C158.57 1.13194 160.358 0.783936 162.302 0.783936C164.246 0.783936 166.034 1.13194 167.666 1.82793C169.298 2.49993 170.69 3.43594 171.842 4.63594C173.018 5.83594 173.93 7.25194 174.578 8.88393C175.25 10.5159 175.586 12.2799 175.586 14.1759C175.586 16.0719 175.25 17.8359 174.578 19.4679C173.93 21.0999 173.018 22.5159 171.842 23.7159C170.69 24.9159 169.298 25.8639 167.666 26.5599C166.034 27.2319 164.246 27.5679 162.302 27.5679ZM162.302 24.3279C163.766 24.3279 165.086 24.0639 166.262 23.5359C167.438 22.9839 168.446 22.2519 169.286 21.3399C170.126 20.4279 170.774 19.3599 171.23 18.1359C171.686 16.8879 171.914 15.5679 171.914 14.1759C171.914 12.7839 171.686 11.4759 171.23 10.2519C170.774 9.00393 170.126 7.92393 169.286 7.01193C168.446 6.09994 167.438 5.37993 166.262 4.85193C165.086 4.29993 163.766 4.02393 162.302 4.02393C160.838 4.02393 159.518 4.29993 158.342 4.85193C157.166 5.37993 156.158 6.09994 155.318 7.01193C154.478 7.92393 153.83 9.00393 153.374 10.2519C152.918 11.4759 152.69 12.7839 152.69 14.1759C152.69 15.5679 152.918 16.8879 153.374 18.1359C153.83 19.3599 154.478 20.4279 155.318 21.3399C156.158 22.2519 157.166 22.9839 158.342 23.5359C159.518 24.0639 160.838 24.3279 162.302 24.3279Z" fill="white"/>
<path d="M184.155 1.43194H188.691L202.731 22.3839H202.803V1.43194H206.259V26.9199H201.867L187.683 5.96794H187.611V26.9199H184.155V1.43194Z" fill="white"/>
</svg>
