<svg width="213" height="30" viewBox="0 0 213 30" fill="none" xmlns="http://www.w3.org/2000/svg">
<path d="M3.276 1.512H6.732V27H3.276V1.512ZM16.8955 1.512H21.4315L35.4715 22.464H35.5435V1.512H38.9995V27H34.6075L20.4235 6.048H20.3515V27H16.8955V1.512ZM54.4759 4.752H46.2679V1.512H66.1399V4.752H57.9319V27H54.4759V4.752ZM76.4078 1.512V17.136C76.4078 17.928 76.5158 18.756 76.7318 19.62C76.9478 20.46 77.3078 21.24 77.8118 21.96C78.3158 22.68 78.9758 23.268 79.7918 23.724C80.6078 24.18 81.6158 24.408 82.8158 24.408C84.0158 24.408 85.0238 24.18 85.8398 23.724C86.6558 23.268 87.3158 22.68 87.8198 21.96C88.3238 21.24 88.6838 20.46 88.8998 19.62C89.1158 18.756 89.2238 17.928 89.2238 17.136V1.512H92.6798V17.676C92.6798 19.164 92.4278 20.52 91.9238 21.744C91.4198 22.944 90.7238 23.988 89.8358 24.876C88.9478 25.764 87.9038 26.448 86.7038 26.928C85.5038 27.408 84.2078 27.648 82.8158 27.648C81.4238 27.648 80.1278 27.408 78.9278 26.928C77.7278 26.448 76.6838 25.764 75.7958 24.876C74.9078 23.988 74.2118 22.944 73.7078 21.744C73.2038 20.52 72.9518 19.164 72.9518 17.676V1.512H76.4078ZM102.367 1.512H105.823V27H102.367V1.512ZM121.315 4.752H113.107V1.512H132.979V4.752H124.771V27H121.315V4.752ZM140.259 1.512H143.715V27H140.259V1.512ZM165.578 27.648C163.634 27.648 161.846 27.312 160.214 26.64C158.582 25.944 157.178 24.996 156.002 23.796C154.85 22.596 153.938 21.18 153.266 19.548C152.618 17.916 152.294 16.152 152.294 14.256C152.294 12.36 152.618 10.596 153.266 8.964C153.938 7.332 154.85 5.916 156.002 4.716C157.178 3.516 158.582 2.58 160.214 1.908C161.846 1.212 163.634 0.864 165.578 0.864C167.522 0.864 169.31 1.212 170.942 1.908C172.574 2.58 173.966 3.516 175.118 4.716C176.294 5.916 177.206 7.332 177.854 8.964C178.526 10.596 178.862 12.36 178.862 14.256C178.862 16.152 178.526 17.916 177.854 19.548C177.206 21.18 176.294 22.596 175.118 23.796C173.966 24.996 172.574 25.944 170.942 26.64C169.31 27.312 167.522 27.648 165.578 27.648ZM165.578 24.408C167.042 24.408 168.362 24.144 169.538 23.616C170.714 23.064 171.722 22.332 172.562 21.42C173.402 20.508 174.05 19.44 174.506 18.216C174.962 16.968 175.19 15.648 175.19 14.256C175.19 12.864 174.962 11.556 174.506 10.332C174.05 9.084 173.402 8.004 172.562 7.092C171.722 6.18 170.714 5.46 169.538 4.932C168.362 4.38 167.042 4.104 165.578 4.104C164.114 4.104 162.794 4.38 161.618 4.932C160.442 5.46 159.434 6.18 158.594 7.092C157.754 8.004 157.106 9.084 156.65 10.332C156.194 11.556 155.966 12.864 155.966 14.256C155.966 15.648 156.194 16.968 156.65 18.216C157.106 19.44 157.754 20.508 158.594 21.42C159.434 22.332 160.442 23.064 161.618 23.616C162.794 24.144 164.114 24.408 165.578 24.408ZM187.431 1.512H191.967L206.007 22.464H206.079V1.512H209.535V27H205.143L190.959 6.048H190.887V27H187.431V1.512Z" fill="black"/>
<path d="M3.276 1.512V1.112H2.876V1.512H3.276ZM6.732 1.512H7.132V1.112H6.732V1.512ZM6.732 27V27.4H7.132V27H6.732ZM3.276 27H2.876V27.4H3.276V27ZM3.276 1.912H6.732V1.112H3.276V1.912ZM6.332 1.512V27H7.132V1.512H6.332ZM6.732 26.6H3.276V27.4H6.732V26.6ZM3.676 27V1.512H2.876V27H3.676ZM16.8955 1.512V1.112H16.4955V1.512H16.8955ZM21.4315 1.512L21.7638 1.28933L21.645 1.112H21.4315V1.512ZM35.4715 22.464L35.1392 22.6867L35.2581 22.864H35.4715V22.464ZM35.5435 22.464V22.864H35.9435V22.464H35.5435ZM35.5435 1.512V1.112H35.1435V1.512H35.5435ZM38.9995 1.512H39.3995V1.112H38.9995V1.512ZM38.9995 27V27.4H39.3995V27H38.9995ZM34.6075 27L34.2763 27.2242L34.3953 27.4H34.6075V27ZM20.4235 6.048L20.7548 5.82376L20.6358 5.648H20.4235V6.048ZM20.3515 6.048V5.648H19.9515V6.048H20.3515ZM20.3515 27V27.4H20.7515V27H20.3515ZM16.8955 27H16.4955V27.4H16.8955V27ZM16.8955 1.912H21.4315V1.112H16.8955V1.912ZM21.0992 1.73467L35.1392 22.6867L35.8038 22.2413L21.7638 1.28933L21.0992 1.73467ZM35.4715 22.864H35.5435V22.064H35.4715V22.864ZM35.9435 22.464V1.512H35.1435V22.464H35.9435ZM35.5435 1.912H38.9995V1.112H35.5435V1.912ZM38.5995 1.512V27H39.3995V1.512H38.5995ZM38.9995 26.6H34.6075V27.4H38.9995V26.6ZM34.9388 26.7758L20.7548 5.82376L20.0923 6.27224L34.2763 27.2242L34.9388 26.7758ZM20.4235 5.648H20.3515V6.448H20.4235V5.648ZM19.9515 6.048V27H20.7515V6.048H19.9515ZM20.3515 26.6H16.8955V27.4H20.3515V26.6ZM17.2955 27V1.512H16.4955V27H17.2955ZM54.4759 4.752H54.8759V4.352H54.4759V4.752ZM46.2679 4.752H45.8679V5.152H46.2679V4.752ZM46.2679 1.512V1.112H45.8679V1.512H46.2679ZM66.1399 1.512H66.5399V1.112H66.1399V1.512ZM66.1399 4.752V5.152H66.5399V4.752H66.1399ZM57.9319 4.752V4.352H57.5319V4.752H57.9319ZM57.9319 27V27.4H58.3319V27H57.9319ZM54.4759 27H54.0759V27.4H54.4759V27ZM54.4759 4.352H46.2679V5.152H54.4759V4.352ZM46.6679 4.752V1.512H45.8679V4.752H46.6679ZM46.2679 1.912H66.1399V1.112H46.2679V1.912ZM65.7399 1.512V4.752H66.5399V1.512H65.7399ZM66.1399 4.352H57.9319V5.152H66.1399V4.352ZM57.5319 4.752V27H58.3319V4.752H57.5319ZM57.9319 26.6H54.4759V27.4H57.9319V26.6ZM54.8759 27V4.752H54.0759V27H54.8759ZM76.4078 1.512H76.8078V1.112H76.4078V1.512ZM76.7318 19.62L76.3437 19.717L76.3444 19.7196L76.7318 19.62ZM77.8118 21.96L78.1394 21.7306L78.1394 21.7306L77.8118 21.96ZM79.7918 23.724L79.5966 24.0732L79.5966 24.0732L79.7918 23.724ZM87.8198 21.96L88.1474 22.1894L88.1474 22.1894L87.8198 21.96ZM88.8998 19.62L89.2872 19.7196L89.2878 19.717L88.8998 19.62ZM89.2238 1.512V1.112H88.8238V1.512H89.2238ZM92.6798 1.512H93.0798V1.112H92.6798V1.512ZM91.9238 21.744L92.2926 21.8989L92.2936 21.8963L91.9238 21.744ZM89.8358 24.876L89.5529 24.5932L89.5529 24.5932L89.8358 24.876ZM86.7038 26.928L86.5552 26.5566L86.5552 26.5566L86.7038 26.928ZM78.9278 26.928L79.0763 26.5566L79.0763 26.5566L78.9278 26.928ZM75.7958 24.876L76.0786 24.5932L76.0786 24.5932L75.7958 24.876ZM73.7078 21.744L73.3379 21.8963L73.339 21.8989L73.7078 21.744ZM72.9518 1.512V1.112H72.5518V1.512H72.9518ZM76.0078 1.512V17.136H76.8078V1.512H76.0078ZM76.0078 17.136C76.0078 17.9645 76.1207 18.8252 76.3437 19.717L77.1198 19.523C76.9108 18.6868 76.8078 17.8915 76.8078 17.136H76.0078ZM76.3444 19.7196C76.5725 20.6067 76.9529 21.4306 77.4841 22.1894L78.1394 21.7306C77.6626 21.0494 77.323 20.3133 77.1192 19.5204L76.3444 19.7196ZM77.4841 22.1894C78.0248 22.9619 78.7314 23.5897 79.5966 24.0732L79.9869 23.3748C79.2201 22.9463 78.6067 22.3981 78.1394 21.7306L77.4841 22.1894ZM79.5966 24.0732C80.4869 24.5707 81.5664 24.808 82.8158 24.808V24.008C81.6651 24.008 80.7287 23.7893 79.9869 23.3748L79.5966 24.0732ZM82.8158 24.808C84.0651 24.808 85.1447 24.5707 86.0349 24.0732L85.6446 23.3748C84.9029 23.7893 83.9664 24.008 82.8158 24.008V24.808ZM86.0349 24.0732C86.9001 23.5897 87.6067 22.9619 88.1474 22.1894L87.4921 21.7306C87.0248 22.3981 86.4114 22.9463 85.6446 23.3748L86.0349 24.0732ZM88.1474 22.1894C88.6786 21.4306 89.059 20.6067 89.2872 19.7196L88.5124 19.5204C88.3085 20.3133 87.9689 21.0494 87.4921 21.7306L88.1474 22.1894ZM89.2878 19.717C89.5108 18.8252 89.6238 17.9645 89.6238 17.136H88.8238C88.8238 17.8915 88.7207 18.6868 88.5117 19.523L89.2878 19.717ZM89.6238 17.136V1.512H88.8238V17.136H89.6238ZM89.2238 1.912H92.6798V1.112H89.2238V1.912ZM92.2798 1.512V17.676H93.0798V1.512H92.2798ZM92.2798 17.676C92.2798 19.1182 92.0357 20.4217 91.5539 21.5917L92.2936 21.8963C92.8198 20.6183 93.0798 19.2098 93.0798 17.676H92.2798ZM91.555 21.5891C91.0703 22.7431 90.4029 23.7432 89.5529 24.5932L90.1186 25.1588C91.0446 24.2328 91.7692 23.1449 92.2925 21.8989L91.555 21.5891ZM89.5529 24.5932C88.7043 25.4417 87.7064 26.0961 86.5552 26.5566L86.8523 27.2994C88.1011 26.7999 89.1912 26.0863 90.1186 25.1588L89.5529 24.5932ZM86.5552 26.5566C85.406 27.0163 84.1608 27.248 82.8158 27.248V28.048C84.2547 28.048 85.6015 27.7997 86.8523 27.2994L86.5552 26.5566ZM82.8158 27.248C81.4707 27.248 80.2255 27.0163 79.0763 26.5566L78.7792 27.2994C80.03 27.7997 81.3768 28.048 82.8158 28.048V27.248ZM79.0763 26.5566C77.9251 26.0961 76.9272 25.4417 76.0786 24.5932L75.5129 25.1588C76.4403 26.0863 77.5304 26.7999 78.7792 27.2994L79.0763 26.5566ZM76.0786 24.5932C75.2286 23.7432 74.5612 22.7431 74.0765 21.5891L73.339 21.8989C73.8623 23.1449 74.5869 24.2328 75.5129 25.1588L76.0786 24.5932ZM74.0776 21.5917C73.5958 20.4217 73.3518 19.1182 73.3518 17.676H72.5518C72.5518 19.2098 72.8117 20.6183 73.3379 21.8963L74.0776 21.5917ZM73.3518 17.676V1.512H72.5518V17.676H73.3518ZM72.9518 1.912H76.4078V1.112H72.9518V1.912ZM102.367 1.512V1.112H101.967V1.512H102.367ZM105.823 1.512H106.223V1.112H105.823V1.512ZM105.823 27V27.4H106.223V27H105.823ZM102.367 27H101.967V27.4H102.367V27ZM102.367 1.912H105.823V1.112H102.367V1.912ZM105.423 1.512V27H106.223V1.512H105.423ZM105.823 26.6H102.367V27.4H105.823V26.6ZM102.767 27V1.512H101.967V27H102.767ZM121.315 4.752H121.715V4.352H121.315V4.752ZM113.107 4.752H112.707V5.152H113.107V4.752ZM113.107 1.512V1.112H112.707V1.512H113.107ZM132.979 1.512H133.379V1.112H132.979V1.512ZM132.979 4.752V5.152H133.379V4.752H132.979ZM124.771 4.752V4.352H124.371V4.752H124.771ZM124.771 27V27.4H125.171V27H124.771ZM121.315 27H120.915V27.4H121.315V27ZM121.315 4.352H113.107V5.152H121.315V4.352ZM113.507 4.752V1.512H112.707V4.752H113.507ZM113.107 1.912H132.979V1.112H113.107V1.912ZM132.579 1.512V4.752H133.379V1.512H132.579ZM132.979 4.352H124.771V5.152H132.979V4.352ZM124.371 4.752V27H125.171V4.752H124.371ZM124.771 26.6H121.315V27.4H124.771V26.6ZM121.715 27V4.752H120.915V27H121.715ZM140.259 1.512V1.112H139.859V1.512H140.259ZM143.715 1.512H144.115V1.112H143.715V1.512ZM143.715 27V27.4H144.115V27H143.715ZM140.259 27H139.859V27.4H140.259V27ZM140.259 1.912H143.715V1.112H140.259V1.912ZM143.315 1.512V27H144.115V1.512H143.315ZM143.715 26.6H140.259V27.4H143.715V26.6ZM140.659 27V1.512H139.859V27H140.659ZM160.214 26.64L160.057 27.008L160.062 27.0099L160.214 26.64ZM156.002 23.796L155.714 24.073L155.717 24.076L156.002 23.796ZM153.266 19.548L152.895 19.6956L152.896 19.7003L153.266 19.548ZM153.266 8.964L152.896 8.81169L152.895 8.81639L153.266 8.964ZM156.002 4.716L155.717 4.43601L155.714 4.43899L156.002 4.716ZM160.214 1.908L160.367 2.2779L160.371 2.27594L160.214 1.908ZM170.942 1.908L170.785 2.27597L170.79 2.27787L170.942 1.908ZM175.118 4.716L174.83 4.99303L174.833 4.99597L175.118 4.716ZM177.854 8.964L177.483 9.11162L177.484 9.1163L177.854 8.964ZM177.854 19.548L177.484 19.3957L177.483 19.4004L177.854 19.548ZM175.118 23.796L174.833 23.516L174.83 23.519L175.118 23.796ZM170.942 26.64L171.095 27.0099L171.099 27.0079L170.942 26.64ZM169.538 23.616L169.702 23.981L169.708 23.9781L169.538 23.616ZM172.562 21.42L172.268 21.149L172.268 21.149L172.562 21.42ZM174.506 18.216L174.881 18.3556L174.882 18.3533L174.506 18.216ZM174.506 10.332L174.131 10.4693L174.132 10.4716L174.506 10.332ZM172.562 7.092L172.268 7.36299L172.268 7.36299L172.562 7.092ZM169.538 4.932L169.368 5.29414L169.375 5.29691L169.538 4.932ZM161.618 4.932L161.782 5.29696L161.788 5.29409L161.618 4.932ZM158.594 7.092L158.889 7.36299L158.889 7.36299L158.594 7.092ZM156.65 10.332L157.025 10.4716L157.026 10.4693L156.65 10.332ZM156.65 18.216L156.275 18.3533L156.276 18.3556L156.65 18.216ZM158.594 21.42L158.889 21.149L158.889 21.149L158.594 21.42ZM161.618 23.616L161.448 23.9781L161.455 23.9809L161.618 23.616ZM165.578 27.248C163.681 27.248 161.946 26.9203 160.367 26.2701L160.062 27.0099C161.747 27.7037 163.587 28.048 165.578 28.048V27.248ZM160.371 26.2721C158.785 25.5955 157.425 24.6765 156.288 23.516L155.717 24.076C156.931 25.3155 158.38 26.2925 160.057 27.0079L160.371 26.2721ZM156.291 23.519C155.176 22.3573 154.29 20.9843 153.636 19.3957L152.896 19.7003C153.586 21.3757 154.525 22.8347 155.714 24.073L156.291 23.519ZM153.638 19.4004C153.01 17.819 152.694 16.1055 152.694 14.256H151.894C151.894 16.1985 152.226 18.013 152.895 19.6956L153.638 19.4004ZM152.694 14.256C152.694 12.4065 153.01 10.693 153.638 9.11161L152.895 8.81639C152.226 10.499 151.894 12.3135 151.894 14.256H152.694ZM153.636 9.1163C154.29 7.52774 155.176 6.15473 156.291 4.99301L155.714 4.43899C154.525 5.67727 153.586 7.13626 152.896 8.8117L153.636 9.1163ZM156.288 4.99597C157.424 3.8366 158.782 2.9303 160.367 2.27787L160.062 1.53813C158.383 2.22969 156.932 3.1954 155.717 4.43603L156.288 4.99597ZM160.371 2.27594C161.949 1.60304 163.683 1.264 165.578 1.264V0.464C163.586 0.464 161.744 0.820959 160.057 1.54006L160.371 2.27594ZM165.578 1.264C167.474 1.264 169.208 1.60304 170.785 2.27594L171.099 1.54006C169.413 0.820959 167.571 0.464 165.578 0.464V1.264ZM170.79 2.27787C172.374 2.93003 173.719 3.83551 174.83 4.99301L175.407 4.43899C174.214 3.19649 172.775 2.22997 171.095 1.53813L170.79 2.27787ZM174.833 4.99597C175.97 6.1563 176.853 7.52674 177.483 9.11161L178.226 8.81639C177.559 7.13725 176.619 5.6757 175.404 4.43603L174.833 4.99597ZM177.484 9.1163C178.135 10.6965 178.462 12.4083 178.462 14.256H179.262C179.262 12.3117 178.918 10.4955 178.224 8.8117L177.484 9.1163ZM178.462 14.256C178.462 16.1037 178.135 17.8155 177.484 19.3957L178.224 19.7003C178.918 18.0165 179.262 16.2003 179.262 14.256H178.462ZM177.483 19.4004C176.853 20.9853 175.97 22.3557 174.833 23.516L175.404 24.076C176.619 22.8363 177.559 21.3747 178.226 19.6956L177.483 19.4004ZM174.83 23.519C173.718 24.6776 172.371 25.5958 170.785 26.2721L171.099 27.0079C172.777 26.2922 174.215 25.3144 175.407 24.073L174.83 23.519ZM170.79 26.2701C169.211 26.9203 167.475 27.248 165.578 27.248V28.048C167.569 28.048 169.41 27.7037 171.095 27.0099L170.79 26.2701ZM165.578 24.808C167.091 24.808 168.468 24.535 169.702 23.9809L169.375 23.2511C168.257 23.753 166.994 24.008 165.578 24.008V24.808ZM169.708 23.9781C170.929 23.4051 171.98 22.6429 172.857 21.691L172.268 21.149C171.465 22.0211 170.5 22.7229 169.368 23.2539L169.708 23.9781ZM172.857 21.691C173.734 20.7388 174.408 19.6256 174.881 18.3556L174.132 18.0764C173.693 19.2544 173.071 20.2772 172.268 21.149L172.857 21.691ZM174.882 18.3533C175.355 17.0592 175.59 15.6926 175.59 14.256H174.79C174.79 15.6034 174.57 16.8768 174.131 18.0787L174.882 18.3533ZM175.59 14.256C175.59 12.8195 175.355 11.4639 174.881 10.1924L174.132 10.4716C174.57 11.6481 174.79 12.9085 174.79 14.256H175.59ZM174.882 10.1947C174.409 8.9008 173.735 7.77449 172.857 6.82101L172.268 7.36299C173.07 8.23351 173.691 9.26719 174.131 10.4693L174.882 10.1947ZM172.857 6.82101C171.978 5.86762 170.926 5.11636 169.702 4.56709L169.375 5.29691C170.503 5.80364 171.466 6.49237 172.268 7.36299L172.857 6.82101ZM169.708 4.5699C168.473 3.98994 167.094 3.704 165.578 3.704V4.504C166.991 4.504 168.252 4.77005 169.368 5.29409L169.708 4.5699ZM165.578 3.704C164.063 3.704 162.684 3.98994 161.448 4.5699L161.788 5.29409C162.905 4.77005 164.166 4.504 165.578 4.504V3.704ZM161.455 4.56709C160.231 5.11636 159.178 5.86762 158.3 6.82101L158.889 7.36299C159.69 6.49237 160.654 5.80364 161.782 5.29691L161.455 4.56709ZM158.3 6.82101C157.422 7.77449 156.747 8.9008 156.275 10.1947L157.026 10.4693C157.465 9.26719 158.087 8.23351 158.889 7.36299L158.3 6.82101ZM156.276 10.1924C155.802 11.4639 155.566 12.8195 155.566 14.256H156.366C156.366 12.9085 156.587 11.6481 157.025 10.4716L156.276 10.1924ZM155.566 14.256C155.566 15.6926 155.802 17.0592 156.275 18.3533L157.026 18.0787C156.587 16.8768 156.366 15.6034 156.366 14.256H155.566ZM156.276 18.3556C156.749 19.6256 157.423 20.7388 158.3 21.691L158.889 21.149C158.086 20.2772 157.464 19.2544 157.025 18.0764L156.276 18.3556ZM158.3 21.691C159.177 22.6429 160.228 23.4051 161.448 23.9781L161.788 23.2539C160.657 22.7229 159.692 22.0211 158.889 21.149L158.3 21.691ZM161.455 23.9809C162.689 24.535 164.066 24.808 165.578 24.808V24.008C164.163 24.008 162.9 23.753 161.782 23.2511L161.455 23.9809ZM187.431 1.512V1.112H187.031V1.512H187.431ZM191.967 1.512L192.3 1.28933L192.181 1.112H191.967V1.512ZM206.007 22.464L205.675 22.6867L205.794 22.864H206.007V22.464ZM206.079 22.464V22.864H206.479V22.464H206.079ZM206.079 1.512V1.112H205.679V1.512H206.079ZM209.535 1.512H209.935V1.112H209.535V1.512ZM209.535 27V27.4H209.935V27H209.535ZM205.143 27L204.812 27.2242L204.931 27.4H205.143V27ZM190.959 6.048L191.291 5.82376L191.172 5.648H190.959V6.048ZM190.887 6.048V5.648H190.487V6.048H190.887ZM190.887 27V27.4H191.287V27H190.887ZM187.431 27H187.031V27.4H187.431V27ZM187.431 1.912H191.967V1.112H187.431V1.912ZM191.635 1.73467L205.675 22.6867L206.34 22.2413L192.3 1.28933L191.635 1.73467ZM206.007 22.864H206.079V22.064H206.007V22.864ZM206.479 22.464V1.512H205.679V22.464H206.479ZM206.079 1.912H209.535V1.112H206.079V1.912ZM209.135 1.512V27H209.935V1.512H209.135ZM209.535 26.6H205.143V27.4H209.535V26.6ZM205.475 26.7758L191.291 5.82376L190.628 6.27224L204.812 27.2242L205.475 26.7758ZM190.959 5.648H190.887V6.448H190.959V5.648ZM190.487 6.048V27H191.287V6.048H190.487ZM190.887 26.6H187.431V27.4H190.887V26.6ZM187.831 27V1.512H187.031V27H187.831Z" fill="black"/>
</svg>
